<svg xmlns="http://www.w3.org/2000/svg" viewBox="0 0 750 500"><g id="freepik--background-simple--inject-582"><path d="M699,141.4c-17.2-37.75-43.2-70.66-81.61-89.05C566.08,27.77,505.25,27.16,452,46c-30.37,10.75-57.31,28.81-83.48,47.22-23.27,16.36-49.81,41.34-78.58,46.63C251,147,159,89,90,105S1,211,18,267s83,56,107,102,110,85,216,59,161-41,217-20,133,27,159-61a262.12,262.12,0,0,0,8.52-109C721.22,206.06,713,172.13,699,141.4Z" style="fill:#92E3A9"></path><path d="M699,141.4c-17.2-37.75-43.2-70.66-81.61-89.05C566.08,27.77,505.25,27.16,452,46c-30.37,10.75-57.31,28.81-83.48,47.22-23.27,16.36-49.81,41.34-78.58,46.63C251,147,159,89,90,105S1,211,18,267s83,56,107,102,110,85,216,59,161-41,217-20,133,27,159-61a262.12,262.12,0,0,0,8.52-109C721.22,206.06,713,172.13,699,141.4Z" style="fill:#fff;opacity:0.7000000000000001"></path></g><g id="freepik--Window--inject-582"><rect x="230.66" y="87.97" width="407.31" height="231.82" rx="7" style="fill:#263238;opacity:0.5"></rect><rect x="222.99" y="79.64" width="407.31" height="231.82" rx="7" style="fill:#fff;stroke:#263238;stroke-linecap:round;stroke-linejoin:round"></rect><path d="M623.72,79.64H229.57A6.59,6.59,0,0,0,223,86.22V96.94H630.3V86.22A6.58,6.58,0,0,0,623.72,79.64Z" style="fill:#263238;stroke:#263238;stroke-linecap:round;stroke-linejoin:round"></path><path d="M596.3,88.17a2.51,2.51,0,1,0-2.51,2.51A2.51,2.51,0,0,0,596.3,88.17Z" style="fill:#fff"></path><path d="M608.21,88.17a2.51,2.51,0,1,0-2.51,2.51A2.51,2.51,0,0,0,608.21,88.17Z" style="fill:#fff"></path><path d="M620.12,88.17a2.51,2.51,0,1,0-2.51,2.51A2.51,2.51,0,0,0,620.12,88.17Z" style="fill:#fff"></path><rect x="222.99" y="115.86" width="406.9" height="27.05" style="fill:#ededed"></rect><polygon points="630 171.9 222.99 171.9 222.99 184.59 222.99 195.09 222.99 201.19 222.99 230.43 222.99 230.67 222.99 259.73 222.99 287.93 476.44 287.93 476.44 259.73 527.71 259.73 527.71 230.67 577.27 230.67 577.27 201.19 630 201.19 630 171.9" style="fill:#92E3A9"></polygon><polygon points="630 171.9 222.99 171.9 222.99 184.59 222.99 195.09 222.99 201.19 222.99 230.43 222.99 230.67 222.99 259.73 222.99 287.93 476.44 287.93 476.44 259.73 527.71 259.73 527.71 230.67 577.27 230.67 577.27 201.19 630 201.19 630 171.9" style="fill:#fff;opacity:0.8"></polygon><rect x="222.99" y="115.86" width="51.1" height="172.64" style="fill:#ededed"></rect><rect x="325.24" y="201.24" width="50.66" height="29.31" style="fill:#92E3A9"></rect><rect x="274.45" y="171.39" width="50.66" height="29.31" style="fill:#92E3A9"></rect><rect x="274.45" y="201.76" width="50.66" height="86.25" style="fill:#92E3A9"></rect><rect x="274.45" y="201.76" width="50.66" height="86.25" style="fill:#fff;opacity:0.6000000000000001"></rect><rect x="375.5" y="201.76" width="50.66" height="29.18" style="fill:#92E3A9"></rect><rect x="375.5" y="201.76" width="50.66" height="29.18" style="fill:#fff;opacity:0.30000000000000004"></rect><path d="M235.89,152.4a1.23,1.23,0,0,0,1.36-1h.83v7.89h-1.24v-6h-1Z" style="fill:#263238"></path><path d="M239.48,153.3a1.89,1.89,0,1,1,3.77,0v4.1a1.89,1.89,0,1,1-3.77,0Zm1.24,4.18c0,.57.25.78.65.78s.64-.21.64-.78v-4.26c0-.56-.25-.78-.64-.78s-.65.22-.65.78Z" style="fill:#263238"></path><path d="M244,153.3a1.89,1.89,0,1,1,3.77,0v4.1a1.89,1.89,0,1,1-3.77,0Zm1.24,4.18c0,.57.25.78.65.78s.64-.21.64-.78v-4.26c0-.56-.25-.78-.64-.78s-.65.22-.65.78Z" style="fill:#263238"></path><path d="M248.45,152.61a1.2,1.2,0,1,1,2.39,0v2.6a1.2,1.2,0,1,1-2.39,0Zm.79,2.65c0,.35.15.5.41.5s.4-.15.4-.5v-2.7c0-.35-.15-.5-.4-.5s-.41.15-.41.5Zm3.52-3.85h.73l-3.11,7.89h-.73Zm-.39,4.09a1.2,1.2,0,1,1,2.39,0v2.59a1.2,1.2,0,1,1-2.39,0Zm.79,2.65c0,.35.14.49.4.49s.41-.14.41-.49v-2.71c0-.35-.16-.49-.41-.49s-.4.14-.4.49Z" style="fill:#263238"></path><path d="M237.22,132.88H236L234.93,125h.85l.93,6.72.88-6.71h.87l.86,6.72.9-6.73H241l-1.07,7.89h-1.16l-.76-5.36Z" style="fill:#263238"></path><path d="M244.5,128.48v.79h-1.92v2.81h2.36v.8H241.7V125h3.24v.8h-2.36v2.69Z" style="fill:#263238"></path><path d="M248.57,128.48v.79h-1.93v2.81H249v.8h-3.24V125H249v.8h-2.36v2.69Z" style="fill:#263238"></path><path d="M251.16,129.45l-.46.78v2.65h-.88V125h.88v3.81l2.1-3.81h.89l-2,3.59,2.06,4.3h-.9Z" style="fill:#263238"></path><path d="M256.11,126.89c0-1.2.6-2,1.81-2s1.81.78,1.81,2V131c0,1.21-.59,2-1.81,2s-1.81-.79-1.81-2ZM257,131c0,.71.31,1.14.94,1.14s.93-.43.93-1.14v-4.17c0-.72-.29-1.15-.93-1.15s-.94.43-.94,1.15Z" style="fill:#263238"></path><path d="M290.31,132.88H289.1L288,125h.86l.92,6.72.88-6.71h.87l.87,6.72.89-6.73h.76L293,132.88h-1.16l-.75-5.36Z" style="fill:#263238"></path><path d="M297.6,128.48v.79h-1.93v2.81H298v.8h-3.25V125H298v.8h-2.37v2.69Z" style="fill:#263238"></path><path d="M301.66,128.48v.79h-1.93v2.81h2.37v.8h-3.25V125h3.25v.8h-2.37v2.69Z" style="fill:#263238"></path><path d="M304.25,129.45l-.46.78v2.65h-.88V125h.88v3.81l2.1-3.81h.89l-2,3.59,2.07,4.3h-.91Z" style="fill:#263238"></path><path d="M310.89,126.42a2.5,2.5,0,0,1-1.1.34V126a1.37,1.37,0,0,0,1.36-1.05h.6v7.89h-.86Z" style="fill:#263238"></path><path d="M342.82,132.88h-1.21L340.53,125h.86l.92,6.72.88-6.71h.87l.87,6.72.89-6.73h.77l-1.08,7.89h-1.16l-.75-5.36Z" style="fill:#263238"></path><path d="M350.11,128.48v.79h-1.93v2.81h2.37v.8H347.3V125h3.25v.8h-2.37v2.69Z" style="fill:#263238"></path><path d="M354.17,128.48v.79h-1.93v2.81h2.37v.8h-3.25V125h3.25v.8h-2.37v2.69Z" style="fill:#263238"></path><path d="M356.76,129.45l-.46.78v2.65h-.88V125h.88v3.81l2.1-3.81h.89l-2,3.59,2.07,4.3h-.9Z" style="fill:#263238"></path><path d="M365.34,126.9c0,2.38-2.68,3.24-2.69,5.06v.12h2.6v.8h-3.46v-.68c0-2.54,2.67-3,2.67-5.26,0-.81-.27-1.24-.93-1.24s-.92.46-.92,1.16v.7h-.82v-.64c0-1.21.55-2,1.77-2S365.34,125.7,365.34,126.9Z" style="fill:#263238"></path><path d="M392.9,132.88h-1.21L390.61,125h.86l.92,6.72.88-6.71h.87l.87,6.72.89-6.73h.77l-1.07,7.89h-1.17l-.75-5.36Z" style="fill:#263238"></path><path d="M400.19,128.48v.79h-1.93v2.81h2.37v.8h-3.25V125h3.25v.8h-2.37v2.69Z" style="fill:#263238"></path><path d="M404.25,128.48v.79h-1.93v2.81h2.37v.8h-3.25V125h3.25v.8h-2.37v2.69Z" style="fill:#263238"></path><path d="M406.85,129.45l-.47.78v2.65h-.88V125h.88v3.81l2.1-3.81h.89l-2,3.59,2.07,4.3h-.9Z" style="fill:#263238"></path><path d="M415.37,126.89v.21a1.56,1.56,0,0,1-1,1.62,1.57,1.57,0,0,1,1,1.63V131c0,1.21-.56,2-1.78,2s-1.77-.79-1.77-2v-.54h.82v.6c0,.71.3,1.14.93,1.14s.92-.42.92-1.22v-.61c0-.78-.32-1.15-1-1.17H413v-.79h.52a.94.94,0,0,0,.94-1.08v-.36c0-.82-.28-1.23-.92-1.23s-.93.44-.93,1.15v.4h-.82v-.36c0-1.2.56-2,1.77-2S415.37,125.69,415.37,126.89Z" style="fill:#263238"></path><path d="M443.58,132.88h-1.21L441.29,125h.86l.92,6.72L444,125h.87l.87,6.72.89-6.73h.76l-1.07,7.89h-1.16l-.75-5.36Z" style="fill:#263238"></path><path d="M450.87,128.48v.79h-1.93v2.81h2.37v.8h-3.25V125h3.25v.8h-2.37v2.69Z" style="fill:#263238"></path><path d="M454.93,128.48v.79H453v2.81h2.37v.8h-3.25V125h3.25v.8H453v2.69Z" style="fill:#263238"></path><path d="M457.52,129.45l-.46.78v2.65h-.88V125h.88v3.81l2.1-3.81h.89l-2,3.59,2.07,4.3h-.91Z" style="fill:#263238"></path><path d="M465.75,131.29v1.59h-.86v-1.59h-2.55v-.8l2.45-5.5h1v5.5h.63v.8Zm-2.6-.8h1.74v-3.86Z" style="fill:#263238"></path><path d="M491.74,132.88h-1.21L489.45,125h.86l.92,6.72.88-6.71H493l.87,6.72.89-6.73h.77l-1.07,7.89h-1.16l-.76-5.36Z" style="fill:#263238"></path><path d="M499,128.48v.79H497.1v2.81h2.37v.8h-3.25V125h3.25v.8H497.1v2.69Z" style="fill:#263238"></path><path d="M503.09,128.48v.79h-1.93v2.81h2.37v.8h-3.25V125h3.25v.8h-2.37v2.69Z" style="fill:#263238"></path><path d="M505.69,129.45l-.47.78v2.65h-.88V125h.88v3.81l2.1-3.81h.89l-2,3.59,2.06,4.3h-.9Z" style="fill:#263238"></path><path d="M511.59,128.2a1.25,1.25,0,0,1,1.17-.65c1,0,1.47.74,1.47,1.87V131c0,1.21-.58,2-1.79,2s-1.77-.79-1.77-2v-.53h.83V131c0,.71.29,1.14.92,1.14s.93-.43.93-1.14v-1.53c0-.71-.3-1.14-.93-1.14a.85.85,0,0,0-.89.84v.18h-.82l.21-4.38H514v.79h-2.32Z" style="fill:#263238"></path><path d="M543.53,132.88h-1.2L541.24,125h.86l.92,6.72.88-6.71h.87l.87,6.72.89-6.73h.77l-1.07,7.89h-1.16l-.76-5.36Z" style="fill:#263238"></path><path d="M550.82,128.48v.79h-1.93v2.81h2.37v.8H548V125h3.25v.8h-2.37v2.69Z" style="fill:#263238"></path><path d="M554.88,128.48v.79H553v2.81h2.37v.8h-3.25V125h3.25v.8H553v2.69Z" style="fill:#263238"></path><path d="M557.48,129.45l-.47.78v2.65h-.87V125H557v3.81l2.1-3.81H560l-2,3.59,2.06,4.3h-.9Z" style="fill:#263238"></path><path d="M566,126.88V127h-.83v-.2c0-.72-.29-1.13-.93-1.13s-1,.43-1,1.27v1.77a1.26,1.26,0,0,1,1.27-.84c1,0,1.47.73,1.47,1.87V131c0,1.21-.6,2-1.8,2s-1.82-.79-1.82-2v-4c0-1.25.56-2,1.82-2S566,125.68,566,126.88Zm-2.72,3V131c0,.71.29,1.14.94,1.14s.93-.43.93-1.14v-1.18c0-.71-.3-1.14-.93-1.14S563.32,129.13,563.32,129.84Z" style="fill:#263238"></path><path d="M595.67,132.88h-1.2L593.38,125h.86l.92,6.72L596,125h.87l.87,6.72.89-6.73h.77l-1.07,7.89h-1.16l-.76-5.36Z" style="fill:#263238"></path><path d="M603,128.48v.79H601v2.81h2.37v.8h-3.25V125h3.25v.8H601v2.69Z" style="fill:#263238"></path><path d="M607,128.48v.79h-1.93v2.81h2.37v.8h-3.25V125h3.25v.8h-2.37v2.69Z" style="fill:#263238"></path><path d="M609.62,129.45l-.47.78v2.65h-.87V125h.87v3.81l2.1-3.81h.89l-2,3.59,2.06,4.3h-.9Z" style="fill:#263238"></path><path d="M617.26,125.78h-2.68V125h3.58v.76l-2,7.13h-.88Z" style="fill:#263238"></path><path d="M293.84,185.8h9.1v.72h-9.1Z" style="fill:#263238"></path><path d="M346.27,185.8h9.1v.72h-9.1Z" style="fill:#263238"></path><path d="M396.57,185.8h9.1v.72h-9.1Z" style="fill:#263238"></path><path d="M447.39,185.8h9.1v.72h-9.1Z" style="fill:#263238"></path><path d="M497.9,185.8H507v.72h-9.1Z" style="fill:#263238"></path><path d="M547.24,185.8h9.1v.72h-9.1Z" style="fill:#263238"></path><path d="M599.38,185.8h9.1v.72h-9.1Z" style="fill:#263238"></path><path d="M289.94,154.85c0-.71-.25-.9-.64-.9s-.64.21-.64.77v.51h-1.18v-.43a1.73,1.73,0,0,1,1.85-2c1.22,0,1.85.72,1.85,2V155a1.54,1.54,0,0,1-.87,1.62,1.62,1.62,0,0,1,.87,1.66v.62c0,1.26-.63,2-1.85,2a1.73,1.73,0,0,1-1.85-2v-.66h1.18V159c0,.56.24.77.64.77s.64-.19.64-.89v-.62c0-.73-.25-1-.81-1h-.42v-1.13h.49c.46,0,.74-.2.74-.83Z" style="fill:#263238"></path><path d="M293.21,159.61v1.19H292v-1.19Z" style="fill:#263238"></path><path d="M293.82,158.24l2.26-5.33h1.35v5.33H298v1.13h-.59v1.43h-1.22v-1.43h-2.39Zm2.39,0v-3l-1.25,3Z" style="fill:#263238"></path><path d="M298.48,154.8a1.89,1.89,0,1,1,3.77,0v4.11a1.89,1.89,0,1,1-3.77,0Zm1.24,4.19c0,.56.25.77.65.77s.64-.21.64-.77v-4.27c0-.56-.25-.77-.64-.77s-.65.21-.65.77Z" style="fill:#263238"></path><path d="M303,154.11a1.2,1.2,0,1,1,2.4,0v2.6a1.2,1.2,0,1,1-2.4,0Zm.79,2.65c0,.35.15.5.41.5s.41-.15.41-.5v-2.7c0-.35-.16-.5-.41-.5s-.41.15-.41.5Zm3.52-3.85H308l-3.12,7.89h-.73ZM306.9,157a1.2,1.2,0,1,1,2.39,0v2.6a1.2,1.2,0,1,1-2.39,0Zm.79,2.65c0,.35.14.5.4.5s.41-.15.41-.5V157c0-.35-.16-.5-.41-.5s-.4.15-.4.5Z" style="fill:#263238"></path><path d="M339.89,154.8a1.88,1.88,0,1,1,3.76,0v4.11a1.88,1.88,0,1,1-3.76,0Zm1.24,4.19c0,.56.25.77.64.77s.64-.21.64-.77v-4.27c0-.56-.24-.77-.64-.77s-.64.21-.64.77Z" style="fill:#263238"></path><path d="M345.65,159.61v1.19h-1.19v-1.19Z" style="fill:#263238"></path><path d="M348.34,160.89a1.78,1.78,0,0,1-1.94-2v-.62a1.73,1.73,0,0,1,.77-1.65,1.63,1.63,0,0,1-.77-1.59v-.25a1.94,1.94,0,1,1,3.88,0v.25a1.65,1.65,0,0,1-.77,1.59,1.75,1.75,0,0,1,.77,1.65v.62A1.78,1.78,0,0,1,348.34,160.89Zm-.7-5.6c0,.63.29.83.7.83s.7-.2.7-.83v-.44c0-.71-.31-.9-.7-.9s-.7.19-.7.9Zm.7,4.47c.39,0,.69-.19.7-.89v-.73c0-.62-.26-.89-.7-.89s-.7.27-.7.89v.73C347.64,159.57,347.94,159.76,348.34,159.76Z" style="fill:#263238"></path><path d="M352.14,158.25V159c0,.56.25.76.64.76s.65-.2.65-.76v-1.74c0-.56-.25-.78-.65-.78s-.64.22-.64.78v.24H351l.22-4.58h3.27V154h-2.15l-.1,1.88a1.18,1.18,0,0,1,1.08-.58c.91,0,1.38.65,1.38,1.81v1.76c0,1.26-.63,2-1.85,2s-1.85-.72-1.85-2v-.66Z" style="fill:#263238"></path><path d="M355.42,154.11a1.2,1.2,0,1,1,2.39,0v2.6a1.2,1.2,0,1,1-2.39,0Zm.79,2.65c0,.35.15.5.41.5s.41-.15.41-.5v-2.7c0-.35-.16-.5-.41-.5s-.41.15-.41.5Zm3.52-3.85h.73l-3.11,7.89h-.73Zm-.39,4.09a1.2,1.2,0,1,1,2.39,0v2.6a1.2,1.2,0,1,1-2.39,0Zm.79,2.65c0,.35.14.5.4.5s.41-.15.41-.5V157c0-.35-.16-.5-.41-.5s-.4.15-.4.5Z" style="fill:#263238"></path><path d="M390.19,154.8a1.88,1.88,0,1,1,3.76,0v4.11a1.88,1.88,0,1,1-3.76,0Zm1.24,4.19c0,.56.25.77.64.77s.64-.21.64-.77v-4.27c0-.56-.25-.77-.64-.77s-.64.21-.64.77Z" style="fill:#263238"></path><path d="M396,159.61v1.19h-1.19v-1.19Z" style="fill:#263238"></path><path d="M398.67,154c-.39,0-.64.21-.64.77v.85h-1.18v-.77a1.73,1.73,0,0,1,1.85-2c1.22,0,1.85.72,1.85,2,0,2.48-2.47,3.41-2.47,4.7a.91.91,0,0,0,0,.17h2.35v1.13h-3.59v-1c0-2.32,2.46-2.7,2.46-5C399.31,154.14,399.07,154,398.67,154Z" style="fill:#263238"></path><path d="M401.24,154.87c0-1.33.61-2.05,1.9-2.05s1.85.72,1.85,2V155h-1.18v-.29c0-.56-.24-.77-.64-.77s-.69.21-.69,1v1.44a1.19,1.19,0,0,1,1.15-.7c.92,0,1.38.64,1.38,1.8v1.45a1.89,1.89,0,1,1-3.77,0Zm1.24,2.7V159c0,.56.25.76.65.76s.64-.2.64-.76v-1.42c0-.57-.25-.78-.64-.78S402.48,157,402.48,157.57Z" style="fill:#263238"></path><path d="M405.72,154.11a1.2,1.2,0,1,1,2.39,0v2.6a1.2,1.2,0,1,1-2.39,0Zm.79,2.65c0,.35.15.5.41.5s.4-.15.4-.5v-2.7c0-.35-.15-.5-.4-.5s-.41.15-.41.5Zm3.52-3.85h.73l-3.11,7.89h-.73Zm-.4,4.09a1.2,1.2,0,1,1,2.4,0v2.6a1.2,1.2,0,1,1-2.4,0Zm.79,2.65c0,.35.15.5.41.5s.41-.15.41-.5V157c0-.35-.16-.5-.41-.5s-.41.15-.41.5Z" style="fill:#263238"></path><path d="M441,154.8a1.89,1.89,0,1,1,3.77,0v4.11a1.89,1.89,0,1,1-3.77,0Zm1.24,4.19c0,.56.25.77.64.77s.64-.21.64-.77v-4.27c0-.56-.24-.77-.64-.77s-.64.21-.64.77Z" style="fill:#263238"></path><path d="M446.77,159.61v1.19h-1.19v-1.19Z" style="fill:#263238"></path><path d="M447.57,154.8a1.89,1.89,0,1,1,3.77,0v4.11a1.89,1.89,0,1,1-3.77,0Zm1.24,4.19c0,.56.25.77.65.77s.64-.21.64-.77v-4.27c0-.56-.25-.77-.64-.77s-.65.21-.65.77Z" style="fill:#263238"></path><path d="M452,154.8a1.89,1.89,0,1,1,3.77,0v4.11a1.89,1.89,0,1,1-3.77,0Zm1.24,4.19c0,.56.25.77.65.77s.64-.21.64-.77v-4.27c0-.56-.25-.77-.64-.77s-.65.21-.65.77Z" style="fill:#263238"></path><path d="M456.54,154.11a1.2,1.2,0,1,1,2.39,0v2.6a1.2,1.2,0,1,1-2.39,0Zm.79,2.65c0,.35.15.5.41.5s.4-.15.4-.5v-2.7c0-.35-.15-.5-.4-.5s-.41.15-.41.5Zm3.52-3.85h.73l-3.11,7.89h-.73Zm-.39,4.09a1.2,1.2,0,1,1,2.39,0v2.6a1.2,1.2,0,1,1-2.39,0Zm.79,2.65c0,.35.14.5.4.5s.41-.15.41-.5V157c0-.35-.16-.5-.41-.5s-.4.15-.4.5Z" style="fill:#263238"></path><path d="M491.51,154.8a1.89,1.89,0,1,1,3.77,0v4.11a1.89,1.89,0,1,1-3.77,0Zm1.24,4.19c0,.56.25.77.65.77s.64-.21.64-.77v-4.27c0-.56-.25-.77-.64-.77s-.65.21-.65.77Z" style="fill:#263238"></path><path d="M497.28,159.61v1.19h-1.2v-1.19Z" style="fill:#263238"></path><path d="M500.57,154.85c0-.71-.25-.9-.64-.9s-.65.21-.65.77v.51h-1.17v-.43c0-1.26.63-2,1.85-2s1.85.72,1.85,2V155a1.54,1.54,0,0,1-.87,1.62,1.62,1.62,0,0,1,.87,1.66v.62c0,1.26-.63,2-1.85,2s-1.85-.72-1.85-2v-.66h1.17V159c0,.56.25.77.65.77s.64-.19.64-.89v-.62c0-.73-.25-1-.81-1h-.42v-1.13h.49c.46,0,.74-.2.74-.83Z" style="fill:#263238"></path><path d="M503.76,158.25V159c0,.56.25.76.65.76s.64-.2.64-.76v-1.74c0-.56-.25-.78-.64-.78s-.65.22-.65.78v.24h-1.17l.23-4.58h3.27V154h-2.16l-.1,1.88a1.2,1.2,0,0,1,1.08-.58c.92,0,1.38.65,1.38,1.81v1.76c0,1.26-.63,2-1.85,2s-1.85-.72-1.85-2v-.66Z" style="fill:#263238"></path><path d="M507.05,154.11a1.2,1.2,0,1,1,2.39,0v2.6a1.2,1.2,0,1,1-2.39,0Zm.79,2.65c0,.35.14.5.4.5s.41-.15.41-.5v-2.7c0-.35-.16-.5-.41-.5s-.4.15-.4.5Zm3.51-3.85h.74L509,160.8h-.74ZM511,157a1.2,1.2,0,1,1,2.39,0v2.6a1.2,1.2,0,1,1-2.39,0Zm.79,2.65c0,.35.15.5.4.5s.41-.15.41-.5V157c0-.35-.16-.5-.41-.5s-.4.15-.4.5Z" style="fill:#263238"></path><path d="M540.85,154.8a1.89,1.89,0,1,1,3.77,0v4.11a1.89,1.89,0,1,1-3.77,0Zm1.24,4.19c0,.56.25.77.65.77s.64-.21.64-.77v-4.27c0-.56-.25-.77-.64-.77s-.65.21-.65.77Z" style="fill:#263238"></path><path d="M546.62,159.61v1.19h-1.2v-1.19Z" style="fill:#263238"></path><path d="M547.42,154.8a1.89,1.89,0,1,1,3.77,0v4.11a1.89,1.89,0,1,1-3.77,0Zm1.24,4.19c0,.56.25.77.64.77s.65-.21.65-.77v-4.27c0-.56-.25-.77-.65-.77s-.64.21-.64.77Z" style="fill:#263238"></path><path d="M551.89,154.8a1.88,1.88,0,1,1,3.76,0v4.11a1.88,1.88,0,1,1-3.76,0Zm1.24,4.19c0,.56.25.77.64.77s.64-.21.64-.77v-4.27c0-.56-.24-.77-.64-.77s-.64.21-.64.77Z" style="fill:#263238"></path><path d="M556.39,154.11a1.2,1.2,0,1,1,2.39,0v2.6a1.2,1.2,0,1,1-2.39,0Zm.79,2.65c0,.35.15.5.4.5s.41-.15.41-.5v-2.7c0-.35-.16-.5-.41-.5s-.4.15-.4.5Zm3.52-3.85h.73l-3.11,7.89h-.74Zm-.4,4.09a1.2,1.2,0,1,1,2.39,0v2.6a1.2,1.2,0,1,1-2.39,0Zm.79,2.65c0,.35.15.5.41.5s.4-.15.4-.5V157c0-.35-.15-.5-.4-.5s-.41.15-.41.5Z" style="fill:#263238"></path><path d="M593,154.8a1.88,1.88,0,1,1,3.76,0v4.11a1.88,1.88,0,1,1-3.76,0Zm1.24,4.19c0,.56.25.77.64.77s.64-.21.64-.77v-4.27c0-.56-.24-.77-.64-.77s-.64.21-.64.77Z" style="fill:#263238"></path><path d="M598.76,159.61v1.19h-1.19v-1.19Z" style="fill:#263238"></path><path d="M599.56,154.8a1.89,1.89,0,1,1,3.77,0v4.11a1.89,1.89,0,1,1-3.77,0ZM600.8,159c0,.56.25.77.65.77s.64-.21.64-.77v-4.27c0-.56-.25-.77-.64-.77s-.65.21-.65.77Z" style="fill:#263238"></path><path d="M604,154.8a1.89,1.89,0,1,1,3.77,0v4.11a1.89,1.89,0,1,1-3.77,0Zm1.24,4.19c0,.56.25.77.64.77s.65-.21.65-.77v-4.27c0-.56-.25-.77-.65-.77s-.64.21-.64.77Z" style="fill:#263238"></path><path d="M608.53,154.11a1.2,1.2,0,1,1,2.39,0v2.6a1.2,1.2,0,1,1-2.39,0Zm.79,2.65c0,.35.15.5.41.5s.4-.15.4-.5v-2.7c0-.35-.15-.5-.4-.5s-.41.15-.41.5Zm3.52-3.85h.73l-3.11,7.89h-.73Zm-.39,4.09a1.2,1.2,0,1,1,2.39,0v2.6a1.2,1.2,0,1,1-2.39,0Zm.78,2.65c0,.35.15.5.41.5s.41-.15.41-.5V157c0-.35-.16-.5-.41-.5s-.41.15-.41.5Z" style="fill:#263238"></path><path d="M293.84,216.61h9.1v.72h-9.1Z" style="fill:#263238"></path><path d="M346.27,216.61h9.1v.72h-9.1Z" style="fill:#263238"></path><path d="M396.57,216.61h9.1v.72h-9.1Z" style="fill:#263238"></path><path d="M447.39,216.61h9.1v.72h-9.1Z" style="fill:#263238"></path><path d="M497.9,216.61H507v.72h-9.1Z" style="fill:#263238"></path><path d="M547.24,216.61h9.1v.72h-9.1Z" style="fill:#263238"></path><path d="M293.84,244.6h9.1v.72h-9.1Z" style="fill:#263238"></path><path d="M346.27,247.42h9.1v.72h-9.1Z" style="fill:#263238"></path><path d="M396.57,247.42h9.1v.72h-9.1Z" style="fill:#263238"></path><path d="M447.39,247.42h9.1v.72h-9.1Z" style="fill:#263238"></path><path d="M497.9,247.42H507v.72h-9.1Z" style="fill:#263238"></path><path d="M293.84,275.41h9.1v.72h-9.1Z" style="fill:#263238"></path><path d="M346.27,275.41h9.1v.72h-9.1Z" style="fill:#263238"></path><path d="M396.57,275.41h9.1v.72h-9.1Z" style="fill:#263238"></path><path d="M446.56,275.41h9.1v.72h-9.1Z" style="fill:#263238"></path><path d="M236.73,184.4a2.46,2.46,0,0,1-1.09.34V184A1.36,1.36,0,0,0,237,183h.61v7.89h-.87Z" style="fill:#263238"></path><path d="M238.86,184.87c0-1.2.6-2,1.81-2s1.81.78,1.81,2v4.07c0,1.21-.59,2-1.81,2s-1.81-.79-1.81-2Zm.87,4.13c0,.71.31,1.14.94,1.14s.93-.43.93-1.14v-4.17c0-.72-.29-1.15-.93-1.15s-.94.43-.94,1.15Z" style="fill:#263238"></path><path d="M243.25,184.87c0-1.2.6-2,1.81-2s1.81.78,1.81,2v4.07c0,1.21-.6,2-1.81,2s-1.81-.79-1.81-2Zm.87,4.13c0,.71.31,1.14.94,1.14s.93-.43.93-1.14v-4.17c0-.72-.29-1.15-.93-1.15s-.94.43-.94,1.15Z" style="fill:#263238"></path><path d="M249.92,184.2v2.49c0,.76-.36,1.27-1.13,1.27s-1.13-.51-1.13-1.27V184.2c0-.76.36-1.28,1.13-1.28S249.92,183.44,249.92,184.2Zm-1.69,0v2.57c0,.43.16.71.56.71s.57-.28.57-.71v-2.57c0-.43-.17-.72-.57-.72S248.23,183.73,248.23,184.16Zm4.29-1.19-3.11,7.89h-.53L252,183Zm1.28,4.17v2.48c0,.77-.35,1.27-1.13,1.27s-1.13-.5-1.13-1.27v-2.48c0-.76.36-1.26,1.13-1.26S253.8,186.38,253.8,187.14Zm-1.69,0v2.56c0,.43.17.73.56.73s.56-.3.56-.73V187.1c0-.42-.17-.71-.56-.71S252.11,186.68,252.11,187.1Z" style="fill:#263238"></path><path d="M236.73,213.89a2.23,2.23,0,0,1-1.09.34v-.72a1.34,1.34,0,0,0,1.35-1h.61v7.9h-.87Z" style="fill:#263238"></path><path d="M238.86,214.37c0-1.21.6-2,1.81-2s1.81.78,1.81,2v4.07c0,1.21-.59,2-1.81,2s-1.81-.78-1.81-2Zm.87,4.12c0,.72.31,1.14.94,1.14s.93-.42.93-1.14v-4.17c0-.72-.29-1.15-.93-1.15s-.94.43-.94,1.15Z" style="fill:#263238"></path><path d="M243.25,214.37c0-1.21.6-2,1.81-2s1.81.78,1.81,2v4.07c0,1.21-.6,2-1.81,2s-1.81-.78-1.81-2Zm.87,4.12c0,.72.31,1.14.94,1.14s.93-.42.93-1.14v-4.17c0-.72-.29-1.15-.93-1.15s-.94.43-.94,1.15Z" style="fill:#263238"></path><path d="M249.92,213.69v2.49c0,.77-.36,1.28-1.13,1.28s-1.13-.51-1.13-1.28v-2.49c0-.75.36-1.27,1.13-1.27S249.92,212.94,249.92,213.69Zm-1.69,0v2.57c0,.43.16.71.56.71s.57-.28.57-.71v-2.57c0-.43-.17-.72-.57-.72S248.23,213.23,248.23,213.66Zm4.29-1.2-3.11,7.9h-.53l3.11-7.9Zm1.28,4.17v2.49c0,.76-.35,1.27-1.13,1.27s-1.13-.51-1.13-1.27v-2.49c0-.75.36-1.26,1.13-1.26S253.8,215.88,253.8,216.63Zm-1.69,0v2.56c0,.43.17.72.56.72s.56-.29.56-.72V216.6c0-.43-.17-.71-.56-.71S252.11,216.17,252.11,216.6Z" style="fill:#263238"></path><path d="M236.73,243a2.34,2.34,0,0,1-1.09.34v-.72a1.35,1.35,0,0,0,1.35-1h.61v7.89h-.87Z" style="fill:#263238"></path><path d="M238.86,243.49c0-1.21.6-2,1.81-2s1.81.78,1.81,2v4.07c0,1.2-.59,2-1.81,2s-1.81-.79-1.81-2Zm.87,4.12c0,.71.31,1.14.94,1.14s.93-.43.93-1.14v-4.17c0-.72-.29-1.15-.93-1.15s-.94.43-.94,1.15Z" style="fill:#263238"></path><path d="M243.25,243.49c0-1.21.6-2,1.81-2s1.81.78,1.81,2v4.07c0,1.2-.6,2-1.81,2s-1.81-.79-1.81-2Zm.87,4.12c0,.71.31,1.14.94,1.14s.93-.43.93-1.14v-4.17c0-.72-.29-1.15-.93-1.15s-.94.43-.94,1.15Z" style="fill:#263238"></path><path d="M249.92,242.81v2.49c0,.77-.36,1.28-1.13,1.28s-1.13-.51-1.13-1.28v-2.49c0-.76.36-1.27,1.13-1.27S249.92,242.05,249.92,242.81Zm-1.69,0v2.57c0,.43.16.71.56.71s.57-.28.57-.71v-2.57c0-.43-.17-.73-.57-.73S248.23,242.35,248.23,242.78Zm4.29-1.2-3.11,7.89h-.53l3.11-7.89Zm1.28,4.17v2.48c0,.77-.35,1.28-1.13,1.28s-1.13-.51-1.13-1.28v-2.48c0-.75.36-1.26,1.13-1.26S253.8,245,253.8,245.75Zm-1.69,0v2.56c0,.43.17.72.56.72s.56-.29.56-.72v-2.56c0-.43-.17-.71-.56-.71S252.11,245.29,252.11,245.72Z" style="fill:#263238"></path><path d="M236.73,274.38a2.34,2.34,0,0,1-1.09.34V274A1.35,1.35,0,0,0,237,273h.61v7.89h-.87Z" style="fill:#263238"></path><path d="M238.86,274.86c0-1.21.6-2,1.81-2s1.81.78,1.81,2v4.07c0,1.2-.59,2-1.81,2s-1.81-.79-1.81-2Zm.87,4.12c0,.71.31,1.14.94,1.14s.93-.43.93-1.14v-4.17c0-.72-.29-1.15-.93-1.15s-.94.43-.94,1.15Z" style="fill:#263238"></path><path d="M243.25,274.86c0-1.21.6-2,1.81-2s1.81.78,1.81,2v4.07c0,1.2-.6,2-1.81,2s-1.81-.79-1.81-2Zm.87,4.12c0,.71.31,1.14.94,1.14s.93-.43.93-1.14v-4.17c0-.72-.29-1.15-.93-1.15s-.94.43-.94,1.15Z" style="fill:#263238"></path><path d="M249.92,274.18v2.49c0,.77-.36,1.28-1.13,1.28s-1.13-.51-1.13-1.28v-2.49c0-.76.36-1.28,1.13-1.28S249.92,273.42,249.92,274.18Zm-1.69,0v2.57c0,.42.16.71.56.71s.57-.29.57-.71v-2.57c0-.43-.17-.73-.57-.73S248.23,273.72,248.23,274.15Zm4.29-1.2-3.11,7.89h-.53L252,273Zm1.28,4.17v2.48c0,.77-.35,1.28-1.13,1.28s-1.13-.51-1.13-1.28v-2.48c0-.75.36-1.26,1.13-1.26S253.8,276.37,253.8,277.12Zm-1.69,0v2.56c0,.43.17.72.56.72s.56-.29.56-.72v-2.56c0-.43-.17-.71-.56-.71S252.11,276.66,252.11,277.09Z" style="fill:#263238"></path><line x1="325.94" y1="115.86" x2="325.94" y2="288.5" style="fill:none;stroke:#263238;stroke-linecap:round;stroke-linejoin:round"></line><line x1="274.09" y1="115.86" x2="274.09" y2="288.5" style="fill:none;stroke:#263238;stroke-linecap:round;stroke-linejoin:round"></line><line x1="376.29" y1="115.86" x2="376.29" y2="288.5" style="fill:none;stroke:#263238;stroke-linecap:round;stroke-linejoin:round"></line><line x1="426.64" y1="115.86" x2="426.64" y2="288.5" style="fill:none;stroke:#263238;stroke-linecap:round;stroke-linejoin:round"></line><line x1="476.98" y1="115.86" x2="476.98" y2="288.5" style="fill:none;stroke:#263238;stroke-linecap:round;stroke-linejoin:round"></line><line x1="527.33" y1="115.86" x2="527.33" y2="288.5" style="fill:none;stroke:#263238;stroke-linecap:round;stroke-linejoin:round"></line><line x1="577.68" y1="115.86" x2="577.68" y2="288.5" style="fill:none;stroke:#263238;stroke-linecap:round;stroke-linejoin:round"></line><line x1="222.99" y1="172.22" x2="630.28" y2="172.22" style="fill:none;stroke:#263238;stroke-linecap:round;stroke-linejoin:round"></line><line x1="222.99" y1="142.91" x2="630.28" y2="142.91" style="fill:none;stroke:#263238;stroke-linecap:round;stroke-linejoin:round"></line><line x1="222.99" y1="201.53" x2="630.28" y2="201.53" style="fill:none;stroke:#263238;stroke-linecap:round;stroke-linejoin:round"></line><line x1="222.99" y1="230.83" x2="630.28" y2="230.83" style="fill:none;stroke:#263238;stroke-linecap:round;stroke-linejoin:round"></line><line x1="222.99" y1="260.14" x2="630.28" y2="260.14" style="fill:none;stroke:#263238;stroke-linecap:round;stroke-linejoin:round"></line><rect x="222.99" y="115.86" width="407.29" height="172.45" style="fill:none;stroke:#263238;stroke-linecap:round;stroke-linejoin:round"></rect><rect x="274.14" y="83.78" width="303.36" height="8.15" style="fill:#fff;stroke:#263238;stroke-linecap:round;stroke-linejoin:round"></rect></g><g id="freepik--Character--inject-582"><path d="M233.43,183.73l5.61-9.56,11.11-4.69s4.1,10.15,3.72,12.34-7.06,5.44-9.26,5.68a35.74,35.74,0,0,1-4.39.19l-4.14,2.07-5.52-4.23Z" style="fill:#fff;stroke:#263238;stroke-linecap:round;stroke-linejoin:round"></path><path d="M245.5,171.73s8.77-4.13,10.58-4.9,6.55-3.52,7.18-1.72-6.73,5-7.57,5.68a22.17,22.17,0,0,0-2.57,3.22s-.61,2.32-.63,2.73" style="fill:#fff;stroke:#263238;stroke-linecap:round;stroke-linejoin:round"></path><path d="M237.66,176.31a10.85,10.85,0,0,1,2.34-3.38,11.69,11.69,0,0,1,5.43-2.65l7.83.23s3.46-.52.58,1.59-7.26,1.67-7.26,1.67-.51,6.57-5.55,7.67" style="fill:#fff;stroke:#263238;stroke-linecap:round;stroke-linejoin:round"></path><path d="M255.74,173.68s-8,.59-8,2.1-.34,2.32.61,2.62,7.82,0,8.66-.71.64-2.86.52-3.55S255.74,173.68,255.74,173.68Z" style="fill:#fff;stroke:#263238;stroke-linecap:round;stroke-linejoin:round"></path><path d="M248.33,178.4s-.88,2-.23,3,6.84,1,8.65-.16a2.28,2.28,0,0,0,.24-3.56C256.58,177.68,248.33,178.4,248.33,178.4Z" style="fill:#fff;stroke:#263238;stroke-linecap:round;stroke-linejoin:round"></path><path d="M248.1,181.41s-1,1.62-.48,2.32,6,1.41,7.39.77,1.73-2.7,1.73-2.7S251,182.18,248.1,181.41Z" style="fill:#fff;stroke:#263238;stroke-linecap:round;stroke-linejoin:round"></path><path d="M178.94,162s1.56.36,5.44,7.05S200,201.57,200,201.57l32.24-19.76,6.63,9s-35.13,32.83-39.23,34-7,2.3-10,.33-16.3-21.48-16.3-21.48L176.63,166S176.44,161.59,178.94,162Z" style="fill:#92E3A9;stroke:#263238;stroke-linecap:round;stroke-linejoin:round"></path><line x1="200" y1="201.57" x2="195.21" y2="210.62" style="fill:none;stroke:#263238;stroke-linecap:round;stroke-linejoin:round"></line><line x1="195.21" y1="205.93" x2="189.17" y2="212.97" style="fill:none;stroke:#263238;stroke-linecap:round;stroke-linejoin:round"></line><polygon points="180.8 192.86 183.48 217.66 175.44 208.61 180.8 192.86" style="fill:#263238;stroke:#263238;stroke-linecap:round;stroke-linejoin:round"></polygon><path d="M107.14,335.2s1.28,28.26,1.28,35-3.2,11.19-1.6,20.14,7,40.27,7,40.27-.95,9.91,0,13.42.32,9.91,2.24,11.19,5.43,1.92,7.67,1.92,6.07-1,6.39-1.92-1.91-7-1.91-7-4.16-18.22-4.16-21.1,8.63-50.82,8.63-57.21,1-24,1-24Z" style="fill:#fff;stroke:#263238;stroke-linecap:round;stroke-linejoin:round"></path><path d="M133.67,345.88l-13-5.24-13.3-.43c.15,3.35.34,8,.53,12.65h25.42C133.51,348.89,133.67,345.88,133.67,345.88Z" style="fill:#263238;stroke:#263238;stroke-linecap:round;stroke-linejoin:round"></path><path d="M130.15,455.19c.24-.7-.89-4.11-1.51-5.91a6.91,6.91,0,0,1-8.71-.16c-2.73-2.43-6-13.44-6.36-14.6-.18,3.17-.28,7.42.28,9.48,1,3.52.32,9.91,2.24,11.19s5.43,1.92,7.67,1.92S129.83,456.15,130.15,455.19Z" style="fill:#263238;stroke:#263238;stroke-linecap:round;stroke-linejoin:round"></path><path d="M158.28,335.52s5.11,31.46,5.11,32.73-3.19,12.47,0,21.42,13.75,46.07,13.75,46.07-1,2.19-.64,6.67a45.37,45.37,0,0,0,1,7l1.28,5.43h4.15v-4.15s4.48.63,6.39,2.23,10.23,3.52,11.51,3.84,12.46,1.28,12.46-.32-6.71-6.71-8-8-13.74-9.91-15-11.83-4.47-56.25-4.15-60.09,1.28-30.68,1.28-30.68Z" style="fill:#fff;stroke:#263238;stroke-linecap:round;stroke-linejoin:round"></path><path d="M187.37,345.88l-9.51-3.38-18.55-.6c.51,3.14,1.14,7.09,1.76,11h26C187.26,348.81,187.37,345.88,187.37,345.88Z" style="fill:#263238;stroke:#263238;stroke-linecap:round;stroke-linejoin:round"></path><path d="M205.79,449c0,.71-.58,1.32-2.12,1.44-4.16.32-8-1-14.07-3.2a134.11,134.11,0,0,0-13-3.77,43.71,43.71,0,0,0,.88,6l1.28,5.43h4.15v-4.15s4.48.63,6.39,2.23,10.23,3.52,11.51,3.84,12.46,1.28,12.46-.32C213.25,455,207.8,450.73,205.79,449Z" style="fill:#263238;stroke:#263238;stroke-linecap:round;stroke-linejoin:round"></path><path d="M104.74,250.54a106.8,106.8,0,0,0-4.42,20c-3.39,25.2,5.22,79.8,5.22,79.8h82.78s2.56-49.35,2-63.76-5.49-31.17-5.49-31.17l-5.11-11-71.55-13.73Z" style="fill:#263238;stroke:#263238;stroke-linecap:round;stroke-linejoin:round"></path><path d="M148.21,281.66c7.66,14.66,20.61,38.86,25.21,44.12" style="fill:none;stroke:#666;stroke-linecap:round;stroke-linejoin:round"></path><path d="M142.3,270.25s1.16,2.27,3,5.91" style="fill:none;stroke:#666;stroke-linecap:round;stroke-linejoin:round"></path><path d="M171.94,330.17a15.35,15.35,0,0,0,2.43,2.31" style="fill:none;stroke:#666;stroke-linecap:round;stroke-linejoin:round"></path><path d="M152.83,305.19s10.09,14.18,16.69,22.16" style="fill:none;stroke:#666;stroke-linecap:round;stroke-linejoin:round"></path><path d="M135,151.4s-24.26,5.23-27.17,8.28,3.41,54,3.41,54l-9.65,40.79s15.47,7,30.51,7.47,23.85-.87,23.85-.87l3.77-11.18L163.47,261s7.84-.08,11.6-.28,12-3.1,12-3.1l-11.17-47s4.85-5.19,4.94-8.32-.16-24.88,0-28.64,1.51-8.73-.31-11S157,149.84,152,149.07,135,151.4,135,151.4Z" style="fill:#92E3A9;stroke:#263238;stroke-linecap:round;stroke-linejoin:round"></path><polyline points="158.17 209.56 157.85 213.01 160.68 247.86" style="fill:none;stroke:#263238;stroke-linecap:round;stroke-linejoin:round"></polyline><line x1="144.57" y1="216.19" x2="166.24" y2="208.5" style="fill:none;stroke:#263238;stroke-linecap:round;stroke-linejoin:round"></line><line x1="136.56" y1="219.03" x2="140.76" y2="217.54" style="fill:none;stroke:#263238;stroke-linecap:round;stroke-linejoin:round"></line><path d="M134.76,127.09s1.61,9.22,1.48,13.68a34.43,34.43,0,0,1-1.17,8l14.73,11,7.37-11.07a45.27,45.27,0,0,1-1.69-6.4c-.18-1.88-.3-5.88-.3-5.88s-12.12-3.88-14.89-5.61S134.76,127.09,134.76,127.09Z" style="fill:#fff;stroke:#263238;stroke-linecap:round;stroke-linejoin:round"></path><path d="M143.29,142.66a20.59,20.59,0,0,0,13,7.37l.9-1.36a45.27,45.27,0,0,1-1.69-6.4c-.11-1.16-.2-3.14-.25-4.48l-13.68.41Z" style="fill:#263238;stroke:#263238;stroke-linecap:round;stroke-linejoin:round"></path><path d="M168,93.13s9.28,11.77,8.06,18.09-8.33,9-8.79,13,1.62,21,1.62,21-7.67-2.24-10.08-2l-2.41.26A15.47,15.47,0,0,0,161,135c.66-5,1.11-32.27,1.11-32.27l.35-11.84Z" style="fill:#263238;stroke:#263238;stroke-linecap:round;stroke-linejoin:round"></path><path d="M166.2,112.28s-1.38,17.29-1.77,20.51-.79,7-5.59,10.41-9.62,3.88-14.45.21c-3.63-2.75-8.84-7.35-10.53-9.75s-.93-18.53-.93-18.53,2.82-16.37,10.81-18.19S166.2,112.28,166.2,112.28Z" style="fill:#fff;stroke:#263238;stroke-linecap:round;stroke-linejoin:round"></path><path d="M147.91,120.92c0,1-.56,1.71-1.19,1.69s-1.13-.8-1.1-1.75.56-1.71,1.2-1.69S147.94,120,147.91,120.92Z" style="fill:#263238"></path><path d="M160.73,121.49c0,1-.56,1.71-1.2,1.69s-1.12-.81-1.09-1.76.56-1.71,1.19-1.69S160.76,120.54,160.73,121.49Z" style="fill:#263238"></path><path d="M157.14,119.85s-.47,2.86-.1,3.45a48.75,48.75,0,0,1,2.1,7c0,.58-2.14.9-3.28.87l-2.11-.06" style="fill:none;stroke:#263238;stroke-linecap:round;stroke-linejoin:round"></path><path d="M148.51,133.39s2.24,2,8.22.63" style="fill:none;stroke:#263238;stroke-linecap:round;stroke-linejoin:round"></path><path d="M145.37,116.25s3.69-1.81,6.72-.57" style="fill:none;stroke:#263238;stroke-linecap:round;stroke-linejoin:round"></path><path d="M157.81,116.61s1.19-1.3,5.35.35" style="fill:none;stroke:#263238;stroke-linecap:round;stroke-linejoin:round"></path><path d="M143.9,101.64a13.18,13.18,0,0,1-1.74,9.06c-2.78,4.91-6.06,6.58-6.06,6.58l1.3,27.79s-11.74-5.88-15.7-7.65c-6.93-3.09-5.66-7.21-5.66-7.21s3.11-16.07,3.49-19,.46-15.85,5.91-21.57,16.1-8.05,23.69-6.36,12.53,3.59,18.23,9.34,1.93,14.45.39,17.05a23.64,23.64,0,0,0-2.27,6.58Z" style="fill:#263238;stroke:#263238;stroke-linecap:round;stroke-linejoin:round"></path><path d="M169.22,111.38a18.8,18.8,0,0,1,1,2" style="fill:none;stroke:#666;stroke-linecap:round;stroke-linejoin:round"></path><path d="M138,92.63s20.57,4.7,29.54,16.2" style="fill:none;stroke:#666;stroke-linecap:round;stroke-linejoin:round"></path><path d="M139.44,90.4a39.48,39.48,0,0,1,28.93,7.42" style="fill:none;stroke:#666;stroke-linecap:round;stroke-linejoin:round"></path><path d="M141.3,98.93a22.68,22.68,0,0,1-1.12,10,43.18,43.18,0,0,1-2.14,5" style="fill:none;stroke:#666;stroke-linecap:round;stroke-linejoin:round"></path><line x1="136.51" y1="116.2" x2="135.36" y2="100.41" style="fill:none;stroke:#666;stroke-linecap:round;stroke-linejoin:round"></line><path d="M135.07,148.73l-3.51,3.94s13.58,29.75,16.95,35.25,8.9,17.19,8.9,17.19,5.63-23.58,5.86-31.81-2.76-20.63-2.76-20.63l-3.34-4-7.37,11.07Z" style="fill:#fff;stroke:#263238;stroke-linecap:round;stroke-linejoin:round"></path><polyline points="161.94 162.45 161.71 170.44 149.8 159.74 143.39 169.9 136.54 162.88" style="fill:none;stroke:#263238;stroke-linecap:round;stroke-linejoin:round"></polyline><path d="M149.76,161.15s4.71,15.66,6.57,24.41,1,13.2,1,13.2" style="fill:none;stroke:#263238;stroke-linecap:round;stroke-linejoin:round"></path><path d="M128.29,271.46a1.47,1.47,0,0,1,.43.43,68.44,68.44,0,0,0,4.06,5.73c1.64,2,2.75,7.08,3.18,9.3a1.4,1.4,0,0,1-.79,1.53L134,289a1.4,1.4,0,0,1-1.47-.17h0a1.41,1.41,0,0,0-1.57-.12c-1.94,1.1-6.88,3.53-9.15,1.43s-5.1-8.62-6.17-11.22a1.39,1.39,0,0,1,.54-1.71L126,271a1.38,1.38,0,0,1,1.51,0Z" style="fill:#fff;stroke:#263238;stroke-linecap:round;stroke-linejoin:round"></path><path d="M122.63,156.05s-21.08,2.52-22.43,5.62-13.06,63.69-8.87,70.4,21.78,48.25,21.78,48.25l16.09-9.72-16.79-47.68,6.39-43.15" style="fill:#92E3A9;stroke:#263238;stroke-linecap:round;stroke-linejoin:round"></path></g></svg>
